<?xml version="1.0" standalone="no"?>
<!DOCTYPE svg PUBLIC "-//W3C//DTD SVG 20010904//EN"
 "http://www.w3.org/TR/2001/REC-SVG-20010904/DTD/svg10.dtd">
<svg version="1.0" xmlns="http://www.w3.org/2000/svg"
 width="549.000000pt" height="549.000000pt" viewBox="0 0 549.000000 549.000000"
 preserveAspectRatio="xMidYMid meet">
<metadata>
Created by potrace 1.14, written by Peter Selinger 2001-2017
</metadata>
<g transform="translate(0.000000,549.000000) scale(0.100000,-0.100000)"
fill="#000000" stroke="none">
<path d="M2569 5476 c-2 -2 -39 -7 -82 -11 -43 -3 -88 -8 -100 -10 -12 -2 -51
-9 -87 -15 -83 -13 -88 -14 -190 -40 -94 -23 -276 -78 -300 -90 -8 -5 -46 -20
-85 -36 -96 -37 -294 -138 -387 -196 -362 -225 -661 -518 -893 -873 -65 -100
-200 -358 -234 -450 -88 -232 -141 -420 -166 -595 -43 -286 -43 -628 -1 -865
3 -16 8 -46 11 -65 68 -397 266 -831 534 -1170 96 -123 330 -356 451 -451 128
-101 264 -193 376 -255 24 -13 64 -35 88 -48 195 -108 574 -237 767 -261 30
-4 56 -8 59 -10 3 -2 32 -6 65 -9 331 -35 637 -19 942 50 367 82 774 267 1008
457 219 179 514 481 641 657 190 262 359 658 428 1005 22 108 22 111 31 180 4
32 9 68 12 80 10 36 11 538 2 595 -41 252 -54 319 -80 415 -123 463 -344 842
-693 1191 -286 284 -523 452 -838 592 -97 43 -322 125 -378 137 -8 2 -46 11
-85 20 -75 18 -91 21 -145 31 -19 4 -44 8 -55 10 -11 2 -42 7 -70 10 -27 3
-61 8 -75 11 -30 6 -465 14 -471 9z"/>
</g>
</svg>
